<svg width="50" height="50" viewBox="0 0 50 50" fill="none" xmlns="http://www.w3.org/2000/svg">
<path d="M25 45.8333C36.5063 45.8333 45.8333 36.5063 45.8333 25C45.8333 13.4938 36.5063 4.16667 25 4.16667C13.4938 4.16667 4.16667 13.4938 4.16667 25C4.16667 36.5063 13.4938 45.8333 25 45.8333Z" stroke="white" stroke-width="4" stroke-linecap="round" stroke-linejoin="round"/>
<path d="M25 23.9583C26.3813 23.9583 27.7061 23.4096 28.6828 22.4328C29.6596 21.4561 30.2083 20.1313 30.2083 18.75C30.2083 17.3687 29.6596 16.0439 28.6828 15.0672C27.7061 14.0904 26.3813 13.5417 25 13.5417C23.6187 13.5417 22.2939 14.0904 21.3172 15.0672C20.3404 16.0439 19.7917 17.3687 19.7917 18.75C19.7917 20.1313 20.3404 21.4561 21.3172 22.4328C22.2939 23.4096 23.6187 23.9583 25 23.9583Z" stroke="white" stroke-width="4" stroke-linejoin="round"/>
<path d="M10.4396 39.9292C10.7979 34.501 15.3146 30.2083 20.8333 30.2083H29.1667C34.6781 30.2083 39.1906 34.4896 39.5594 39.9073" stroke="white" stroke-width="4" stroke-linecap="round" stroke-linejoin="round"/>
</svg>
