<svg width="50" height="50" viewBox="0 0 50 50" fill="none" xmlns="http://www.w3.org/2000/svg">
<path d="M15 15C15 14.6685 15.1317 14.3505 15.3661 14.1161C15.6005 13.8817 15.9185 13.75 16.25 13.75H23.75C24.0815 13.75 24.3995 13.8817 24.6339 14.1161C24.8683 14.3505 25 14.6685 25 15C25 15.3315 24.8683 15.6495 24.6339 15.8839C24.3995 16.1183 24.0815 16.25 23.75 16.25H16.25C15.9185 16.25 15.6005 16.1183 15.3661 15.8839C15.1317 15.6495 15 15.3315 15 15ZM16.25 18.75C15.9185 18.75 15.6005 18.8817 15.3661 19.1161C15.1317 19.3505 15 19.6685 15 20C15 20.3315 15.1317 20.6495 15.3661 20.8839C15.6005 21.1183 15.9185 21.25 16.25 21.25H21.25C21.5815 21.25 21.8995 21.1183 22.1339 20.8839C22.3683 20.6495 22.5 20.3315 22.5 20C22.5 19.6685 22.3683 19.3505 22.1339 19.1161C21.8995 18.8817 21.5815 18.75 21.25 18.75H16.25ZM20 2.5C17.3976 2.49912 14.8398 3.17531 12.5778 4.46212C10.3159 5.74893 8.4276 7.60208 7.09857 9.8395C5.76953 12.0769 5.04546 14.6216 4.9975 17.2235C4.94954 19.8255 5.57933 22.3951 6.825 24.68L5.05 30.905C4.98754 31.1236 4.98588 31.3551 5.04519 31.5745C5.1045 31.794 5.22253 31.9931 5.38659 32.1505C5.55065 32.3079 5.75451 32.4175 5.97625 32.4676C6.19799 32.5178 6.4292 32.5065 6.645 32.435L12.49 30.4875C14.4821 31.6387 16.7124 32.3162 19.0083 32.4675C21.3041 32.6189 23.6041 32.24 25.7301 31.3603C27.8561 30.4806 29.7513 29.1236 31.269 27.3943C32.7867 25.665 33.8862 23.6097 34.4825 21.3875C35.0788 19.1653 35.1559 16.8356 34.7078 14.5788C34.2597 12.322 33.2985 10.1986 31.8985 8.3727C30.4984 6.54684 28.6971 5.06751 26.6339 4.04917C24.5707 3.03083 22.3008 2.50077 20 2.5V2.5ZM7.5 17.5C7.50041 14.7265 8.42321 12.0319 10.1231 9.84044C11.823 7.64897 14.2035 6.08507 16.8898 5.39498C19.576 4.70488 22.4155 4.92777 24.9612 6.02855C27.5069 7.12934 29.6142 9.0455 30.9513 11.4754C32.2885 13.9053 32.7795 16.7108 32.3472 19.4504C31.9148 22.19 30.5837 24.708 28.5632 26.608C26.5427 28.508 23.9477 29.6821 21.1868 29.9454C18.4258 30.2087 15.6557 29.5463 13.3125 28.0625C13.1558 27.9631 12.9789 27.8999 12.7947 27.8774C12.6104 27.8549 12.4235 27.8738 12.2475 27.9325L8.1025 29.315L9.3775 24.8625C9.42396 24.6985 9.43639 24.5268 9.41403 24.3578C9.39168 24.1889 9.335 24.0263 9.2475 23.88C8.09965 21.9501 7.49578 19.7454 7.5 17.5ZM30.69 37.3675L24.685 34.3675C25.785 34.06 26.8425 33.65 27.8425 33.1475L31.25 34.8525L42.5 29.2275V27.5C42.5 26.837 42.2366 26.2011 41.7678 25.7322C41.2989 25.2634 40.663 25 40 25H35.815C36.1975 24.2 36.5175 23.3625 36.775 22.5H40C41.3261 22.5 42.5979 23.0268 43.5355 23.9645C44.4732 24.9021 45 26.1739 45 27.5V40C45 41.3261 44.4732 42.5979 43.5355 43.5355C42.5979 44.4732 41.3261 45 40 45H22.5C21.1739 45 19.9021 44.4732 18.9645 43.5355C18.0268 42.5979 17.5 41.3261 17.5 40V34.825C18.3175 34.94 19.15 35 20 35V40C20 40.663 20.2634 41.2989 20.7322 41.7678C21.2011 42.2366 21.837 42.5 22.5 42.5H40C40.663 42.5 41.2989 42.2366 41.7678 41.7678C42.2366 41.2989 42.5 40.663 42.5 40V32.0225L31.81 37.3675C31.6362 37.4546 31.4444 37.5 31.25 37.5C31.0556 37.5 30.8638 37.4546 30.69 37.3675V37.3675Z" fill="white"/>
</svg>
