<svg width="50" height="50" viewBox="0 0 50 50" fill="none" xmlns="http://www.w3.org/2000/svg">
<path d="M45.8334 41.6667V25.3625C45.8335 24.2282 45.602 23.1058 45.1532 22.064C44.7043 21.0223 44.0475 20.0832 43.2229 19.3042L27.8625 4.7875C27.0889 4.0561 26.0647 3.64857 25 3.64857C23.9354 3.64857 22.9111 4.0561 22.1375 4.7875L6.7771 19.3042C5.95257 20.0832 5.29575 21.0223 4.84689 22.064C4.39803 23.1058 4.16657 24.2282 4.16669 25.3625V41.6667C4.16669 42.7717 4.60567 43.8315 5.38708 44.6129C6.16848 45.3943 7.22829 45.8333 8.33335 45.8333H41.6667C42.7718 45.8333 43.8316 45.3943 44.613 44.6129C45.3944 43.8315 45.8334 42.7717 45.8334 41.6667Z" stroke="white" stroke-width="2" stroke-linecap="round" stroke-linejoin="round"/>
</svg>
