<svg width="50" height="50" viewBox="0 0 50 50" fill="none" xmlns="http://www.w3.org/2000/svg">
<path d="M15.1042 12.5C14.6898 12.5 14.2923 12.6646 13.9993 12.9576C13.7063 13.2507 13.5417 13.6481 13.5417 14.0625V29.6875C13.5417 30.1019 13.7063 30.4993 13.9993 30.7924C14.2923 31.0854 14.6898 31.25 15.1042 31.25C15.5186 31.25 15.916 31.0854 16.209 30.7924C16.5021 30.4993 16.6667 30.1019 16.6667 29.6875V14.0625C16.6667 13.6481 16.5021 13.2507 16.209 12.9576C15.916 12.6646 15.5186 12.5 15.1042 12.5ZM25 12.5C24.5856 12.5 24.1882 12.6646 23.8952 12.9576C23.6021 13.2507 23.4375 13.6481 23.4375 14.0625V23.4375C23.4375 23.8519 23.6021 24.2493 23.8952 24.5424C24.1882 24.8354 24.5856 25 25 25C25.4144 25 25.8118 24.8354 26.1049 24.5424C26.3979 24.2493 26.5625 23.8519 26.5625 23.4375V14.0625C26.5625 13.6481 26.3979 13.2507 26.1049 12.9576C25.8118 12.6646 25.4144 12.5 25 12.5ZM33.3333 14.0625C33.3333 13.6481 33.498 13.2507 33.791 12.9576C34.084 12.6646 34.4814 12.5 34.8958 12.5C35.3102 12.5 35.7077 12.6646 36.0007 12.9576C36.2937 13.2507 36.4583 13.6481 36.4583 14.0625V33.8542C36.4583 34.2686 36.2937 34.666 36.0007 34.959C35.7077 35.252 35.3102 35.4167 34.8958 35.4167C34.4814 35.4167 34.084 35.252 33.791 34.959C33.498 34.666 33.3333 34.2686 33.3333 33.8542V14.0625Z" fill="white"/>
<path fill-rule="evenodd" clip-rule="evenodd" d="M7.81251 4.16667C6.84557 4.16667 5.91824 4.55078 5.23451 5.23451C4.55079 5.91823 4.16667 6.84556 4.16667 7.8125V42.1875C4.16667 44.2 5.80001 45.8333 7.81251 45.8333H42.1875C43.1544 45.8333 44.0818 45.4492 44.7655 44.7655C45.4492 44.0818 45.8333 43.1544 45.8333 42.1875V7.8125C45.8333 6.84556 45.4492 5.91823 44.7655 5.23451C44.0818 4.55078 43.1544 4.16667 42.1875 4.16667H7.81251ZM7.29167 7.8125C7.29167 7.67437 7.34655 7.54189 7.44422 7.44422C7.5419 7.34654 7.67437 7.29167 7.81251 7.29167H42.1875C42.3256 7.29167 42.4581 7.34654 42.5558 7.44422C42.6535 7.54189 42.7083 7.67437 42.7083 7.8125V42.1875C42.7083 42.3256 42.6535 42.4581 42.5558 42.5558C42.4581 42.6535 42.3256 42.7083 42.1875 42.7083H7.81251C7.67437 42.7083 7.5419 42.6535 7.44422 42.5558C7.34655 42.4581 7.29167 42.3256 7.29167 42.1875V7.8125Z" fill="white"/>
</svg>
