<svg width="50" height="50" viewBox="0 0 50 50" fill="none" xmlns="http://www.w3.org/2000/svg">
<path d="M9.22187 42.5016L5.71249 3.125H44.2875L40.7734 42.4953L24.9766 46.875L9.22187 42.5016Z" fill="#1572B6"/>
<path d="M25 43.5281L37.7656 39.9891L40.7687 6.34531H25V43.5281Z" fill="#33A9DC"/>
<path d="M25 20.6109H31.3906L31.8312 15.6656H25V10.8359H37.1094L36.9938 12.1312L35.8078 25.4406H25V20.6109V20.6109Z" fill="white"/>
<path d="M25.0297 33.1531L25.0078 33.1594L19.6297 31.7062L19.2859 27.8547H14.4375L15.1141 35.4375L25.0062 38.1844L25.0297 38.1781V33.1531V33.1531Z" fill="#EBEBEB"/>
<path d="M30.9797 25.2359L30.3984 31.7031L25.0125 33.1562V38.1813L34.9125 35.4375L34.9859 34.6219L35.825 25.2359H30.9797V25.2359Z" fill="white"/>
<path d="M25.0172 10.8359V15.6656H13.3516L13.2547 14.5797L13.0344 12.1312L12.9187 10.8359H25.0172V10.8359ZM25 20.6109V25.4406H19.6891L19.5922 24.3547L19.3734 21.9063L19.2578 20.6109H25V20.6109Z" fill="#EBEBEB"/>
</svg>
