<svg width="40" height="40" viewBox="0 0 40 40" fill="none" xmlns="http://www.w3.org/2000/svg">
<path d="M8.54 20.19L8.545 20.21C8.86349 21.7206 9.53263 23.1351 10.4984 24.3395C11.4643 25.5439 12.6997 26.5043 14.105 27.1433L20 29.8233V26.6667H23.3333C25.5435 26.6667 27.6631 25.7887 29.2259 24.2259C30.7887 22.6631 31.6667 20.5435 31.6667 18.3333V16.6667C31.6667 14.4565 30.7887 12.3369 29.2259 10.7741C27.6631 9.21131 25.5435 8.33333 23.3333 8.33333H16.6667C14.4565 8.33333 12.3369 9.21131 10.7741 10.7741C9.21131 12.3369 8.33334 14.4565 8.33334 16.6667V18.3333C8.33334 18.9667 8.40334 19.58 8.535 20.1667L8.54 20.19V20.19ZM23.3333 35L12.7267 30.1783C10.8456 29.3234 9.19188 28.0382 7.89893 26.4265C6.60597 24.8148 5.71001 22.9217 5.28334 20.9C5.09453 20.0575 4.99951 19.1967 5 18.3333V16.6667C5 13.5725 6.22917 10.605 8.41709 8.41709C10.605 6.22916 13.5725 5 16.6667 5H23.3333C26.4275 5 29.395 6.22916 31.5829 8.41709C33.7708 10.605 35 13.5725 35 16.6667V18.3333C35 21.4275 33.7708 24.395 31.5829 26.5829C29.395 28.7708 26.4275 30 23.3333 30V35Z" fill="#F8F8F8"/>
</svg>
