<svg width="50" height="50" viewBox="0 0 50 50" fill="none" xmlns="http://www.w3.org/2000/svg">
<path d="M24.7883 0.0141144C12.1258 0.0141144 12.9164 5.52686 12.9164 5.52686L12.9305 11.2382H25.0141V12.9529H8.13106C8.13106 12.9529 0.0283203 12.0304 0.0283203 24.8569C0.0283203 37.6837 7.10059 37.2288 7.10059 37.2288H11.3213V31.2767C11.3213 31.2767 11.0938 24.1767 18.2807 24.1767H30.2654C30.2654 24.1767 36.9988 24.2859 36.9988 17.6435V6.66078C36.9988 6.66078 38.0215 0.0141144 24.7883 0.0141144ZM18.1254 3.8549C18.4109 3.85464 18.6937 3.91091 18.9576 4.0205C19.2214 4.13008 19.4612 4.29082 19.6631 4.49352C19.865 4.69622 20.0251 4.9369 20.1343 5.2018C20.2434 5.46669 20.2995 5.75059 20.2992 6.03725C20.2995 6.32392 20.2434 6.60782 20.1343 6.87271C20.0251 7.1376 19.865 7.37828 19.6631 7.58098C19.4612 7.78369 19.2214 7.94443 18.9576 8.05401C18.6937 8.16359 18.4109 8.21986 18.1254 8.2196C17.8398 8.21986 17.5571 8.16359 17.2932 8.05401C17.0293 7.94443 16.7896 7.78369 16.5877 7.58098C16.3858 7.37828 16.2257 7.1376 16.1165 6.87271C16.0074 6.60782 15.9513 6.32392 15.9516 6.03725C15.9513 5.75059 16.0074 5.46669 16.1165 5.2018C16.2257 4.9369 16.3858 4.69622 16.5877 4.49352C16.7896 4.29082 17.0293 4.13008 17.2932 4.0205C17.5571 3.91091 17.8398 3.85464 18.1254 3.8549V3.8549Z" fill="url(#paint0_linear_101_54)"/>
<path d="M25.1479 49.8286C37.8104 49.8286 37.0197 44.3159 37.0197 44.3159L37.0057 38.6047H24.9219V36.89H41.8049C41.8049 36.89 49.9076 37.8125 49.9076 24.9857C49.9076 12.159 42.8354 12.6139 42.8354 12.6139H38.6146V18.5659C38.6146 18.5659 38.8422 25.6659 31.6553 25.6659H19.6705C19.6705 25.6659 12.9371 25.5567 12.9371 32.1992V43.1822C12.9371 43.1822 11.9146 49.8286 25.1477 49.8286H25.1479ZM31.8107 45.9882C31.5252 45.9885 31.2424 45.9322 30.9786 45.8226C30.7147 45.7131 30.475 45.5523 30.273 45.3496C30.0711 45.1469 29.911 44.9062 29.8019 44.6413C29.6927 44.3764 29.6367 44.0925 29.6369 43.8059C29.6366 43.5192 29.6927 43.2353 29.8018 42.9704C29.9109 42.7054 30.0711 42.4647 30.273 42.262C30.4749 42.0593 30.7146 41.8985 30.9785 41.7889C31.2424 41.6794 31.5252 41.6231 31.8107 41.6233C32.0963 41.6231 32.3791 41.6793 32.6429 41.7889C32.9068 41.8985 33.1465 42.0592 33.3484 42.2619C33.5504 42.4647 33.7105 42.7053 33.8196 42.9702C33.9288 43.2351 33.9848 43.519 33.9846 43.8057C33.9848 44.0923 33.9288 44.3762 33.8196 44.6411C33.7105 44.906 33.5504 45.1467 33.3484 45.3494C33.1465 45.5521 32.9068 45.7129 32.6429 45.8224C32.3791 45.932 32.0963 45.9883 31.8107 45.988V45.9882Z" fill="url(#paint1_linear_101_54)"/>
<defs>
<linearGradient id="paint0_linear_101_54" x1="4.8217" y1="4.49463" x2="29.6361" y2="28.9656" gradientUnits="userSpaceOnUse">
<stop stop-color="#387EB8"/>
<stop offset="1" stop-color="#366994"/>
</linearGradient>
<linearGradient id="paint1_linear_101_54" x1="19.994" y1="20.2707" x2="46.6371" y2="45.3589" gradientUnits="userSpaceOnUse">
<stop stop-color="#FFE052"/>
<stop offset="1" stop-color="#FFC331"/>
</linearGradient>
</defs>
</svg>
