<svg width="50" height="50" viewBox="0 0 50 50" fill="none" xmlns="http://www.w3.org/2000/svg">
<path d="M9.22187 42.5016L5.71094 3.125H44.2891L40.7734 42.4953L24.9766 46.875L9.22187 42.5016Z" fill="#E44F26"/>
<path d="M25 43.5281L37.7656 39.9891L40.7687 6.34531H25V43.5281Z" fill="#F1662A"/>
<path d="M25 20.9484H18.6094L18.1688 16.0031H25V11.1734H12.8906L13.0063 12.4703L14.1922 25.7781H25V20.9484V20.9484ZM25 33.4906L24.9781 33.4969L19.6 32.0453L19.2563 28.1938H14.4078L15.0844 35.775L24.9781 38.5219L25 38.5156V33.4906Z" fill="#EBEBEB"/>
<path d="M24.9828 20.9484V25.7781H30.9297L30.3703 32.0422L24.9828 33.4953V38.5203L34.8844 35.775L34.9563 34.9594L36.0906 22.2453L36.2094 20.9484H24.9828V20.9484ZM24.9828 11.1734V16.0031H36.6484L36.7453 14.9188L36.9656 12.4703L37.0813 11.1734H24.9828V11.1734Z" fill="white"/>
</svg>
