<svg width="50" height="50" viewBox="0 0 50 50" fill="none" xmlns="http://www.w3.org/2000/svg">
<path d="M16.1238 38.6522C16.1238 38.6522 13.5461 39.7613 17.9584 40.1366C23.3039 40.5877 26.0357 40.5231 31.9266 39.6981C31.9266 39.6981 33.4754 40.4166 35.6381 41.039C22.4328 45.2264 5.75156 40.7964 16.1238 38.6522M14.5102 33.1877C14.5102 33.1877 11.6189 34.7712 16.0346 35.1091C21.7447 35.5449 26.2541 35.5806 34.0572 34.4689C34.0572 34.4689 35.1365 35.2785 36.8336 35.7212C20.8674 39.1756 3.08399 35.9936 14.5102 33.1877" fill="#5382A1"/>
<path d="M28.1137 23.9183C31.3676 26.69 27.2588 29.1842 27.2588 29.1842C27.2588 29.1842 35.5207 26.0286 31.7264 22.0769C28.1826 18.3919 25.4648 16.5607 40.1771 10.2477C40.1771 10.2477 17.0838 14.515 28.1137 23.9182" fill="#E76F00"/>
<path d="M45.5789 42.6939C45.5789 42.6939 47.4865 43.8568 43.4779 44.7565C35.8557 46.465 11.7529 46.9809 5.05723 44.8246C2.65039 44.05 7.16406 42.9749 8.58379 42.7491C10.0645 42.5116 10.9107 42.5559 10.9107 42.5559C8.23398 41.1607 -6.39062 45.2954 3.48223 46.4793C30.4066 49.71 52.5627 45.0247 45.5789 42.6939ZM17.3633 27.526C17.3633 27.526 5.10332 29.6806 13.0219 30.4629C16.3652 30.7941 23.0303 30.7192 29.2387 30.3342C34.3125 30.0178 39.4072 29.3444 39.4072 29.3444C39.4072 29.3444 37.6182 29.9113 36.3238 30.5652C23.8738 32.9879 -0.177344 31.8608 6.74668 29.3827C12.6023 27.2884 17.3635 27.526 17.3635 27.526M39.3566 36.6217C52.0129 31.7558 46.1611 27.0798 42.0768 27.7098C41.0756 27.8639 40.6293 27.9974 40.6293 27.9974C40.6293 27.9974 41.001 27.5668 41.7107 27.3803C49.7908 25.2785 56.0051 33.5793 39.1023 36.8669C39.1023 36.867 39.2982 36.7376 39.3566 36.6217Z" fill="#5382A1"/>
<path d="M31.7264 0.0536113C31.7264 0.0536113 38.7355 5.24147 25.0785 13.2185C14.1271 19.6176 22.5813 23.2662 25.074 27.4348C18.6814 23.1675 13.99 19.4108 17.1375 15.9146C21.7568 10.7821 34.5543 8.29378 31.7264 0.0534668" fill="#E76F00"/>
<path d="M18.607 49.8071C30.7553 50.3825 49.4102 49.4879 49.852 45.2348C49.852 45.2348 49.0027 46.8473 39.8121 48.1276C29.4434 49.5712 16.6551 49.4028 9.07012 48.4775C9.07031 48.4775 10.6229 49.4283 18.6072 49.8071" fill="#5382A1"/>
</svg>
