<svg width="50" height="50" viewBox="0 0 50 50" fill="none" xmlns="http://www.w3.org/2000/svg">
<path d="M2.06719 26.0683V20.6095H3.46094V26.4855C3.52569 26.959 3.47803 27.4388 3.32079 27.8963C3.16354 28.3538 2.89994 28.7795 2.5457 29.1482C1.88721 29.6329 1.04342 29.8951 0.173828 29.885L0.0283203 28.9975C0.58911 28.9978 1.13012 28.8207 1.54688 28.5005C1.92129 28.1277 2.06699 27.6217 2.06699 26.0685L2.06719 26.0683ZM12.4617 25.3682C12.4617 26.0338 12.4617 26.6285 12.5242 27.1433H11.2863L11.2031 26.0872C10.9442 26.4609 10.574 26.7694 10.13 26.9814C9.68606 27.1934 9.18425 27.3013 8.67559 27.2942C7.46894 27.2942 6.03359 26.735 6.03359 24.454V20.664H7.42734V24.2143C7.42734 25.448 7.87461 26.2735 9.1332 26.2735C9.39214 26.2759 9.64902 26.2341 9.88879 26.1507C10.1286 26.0672 10.3464 25.9437 10.5295 25.7875C10.7126 25.6312 10.8573 25.4454 10.9551 25.2408C11.0529 25.0362 11.1018 24.817 11.099 24.596V20.6195H12.4928V25.3327L12.4615 25.3682H12.4617ZM15.1037 22.7757C15.1037 21.9502 15.1037 21.2757 15.0412 20.6632H16.2893L16.3518 21.7727C16.6299 21.3718 17.0302 21.0429 17.5101 20.821C17.9901 20.599 18.5316 20.4923 19.077 20.5123C20.9285 20.5123 22.3223 21.8348 22.3223 23.8052C22.3223 26.1307 20.6477 27.2847 18.8379 27.2847C18.3746 27.3023 17.9139 27.2176 17.5002 27.0388C17.0865 26.8599 16.7339 26.593 16.4766 26.2638V29.8142H15.1035V22.7757H15.1037ZM16.4768 24.5065C16.4805 24.6675 16.5014 24.8278 16.5391 24.9857C16.657 25.3798 16.9257 25.7291 17.3025 25.9783C17.6792 26.2275 18.1426 26.3623 18.6193 26.3615C20.0859 26.3615 20.9494 25.3408 20.9494 23.8585C20.9494 22.5627 20.1379 21.4532 18.6713 21.4532C18.0909 21.4937 17.5478 21.7135 17.1437 22.0714C16.7397 22.4292 16.5025 22.9006 16.4766 23.397V24.5065H16.4768ZM24.8057 20.6573L26.4803 24.4828C26.6594 24.9192 26.8224 25.3602 26.9691 25.8053C27.1146 25.4147 27.2707 24.9177 27.458 24.4562L28.9766 20.6573H30.4432L28.3629 25.2727C27.3227 27.4917 26.6883 28.6367 25.7312 29.329C25.2493 29.7047 24.6616 29.9676 24.0254 30.0923L23.6822 29.0982C24.127 28.9735 24.5399 28.7777 24.899 28.5213C25.4065 28.1685 25.8093 27.7184 26.0746 27.2077C26.1312 27.1193 26.1699 27.0232 26.1889 26.9237C26.1771 26.8166 26.1455 26.7117 26.0953 26.613L23.2662 20.6397H24.7848L24.8057 20.6573V20.6573ZM34.1434 18.7952V20.659H36.1404V21.5467H34.1434V25.0438C34.1434 25.8427 34.4137 26.3042 35.1834 26.3042C35.4568 26.308 35.7295 26.2812 35.9947 26.2242L36.0572 27.1118C35.6596 27.2294 35.24 27.2836 34.8193 27.2717C34.5408 27.2865 34.2618 27.2498 34.0015 27.164C33.7411 27.0781 33.5056 26.9453 33.3111 26.7745C32.8874 26.291 32.6941 25.6884 32.7701 25.0882V21.5378H31.5846V20.65H32.791V19.07L34.1434 18.795V18.7952ZM38.7078 24.108C38.6796 24.409 38.7284 24.7116 38.8507 24.995C38.9729 25.2784 39.1659 25.5357 39.4161 25.7492C39.6663 25.9627 39.9679 26.1273 40.3 26.2317C40.6321 26.336 40.9867 26.3776 41.3395 26.3535C42.053 26.3671 42.7618 26.2522 43.4197 26.0162L43.659 26.9038C42.8516 27.1876 41.9834 27.3237 41.1105 27.3032C40.6017 27.3329 40.0913 27.2684 39.6145 27.114C39.1376 26.9596 38.7055 26.719 38.3479 26.4087C37.9902 26.0985 37.7154 25.7258 37.5424 25.3164C37.3693 24.907 37.3021 24.4705 37.3453 24.0368C37.3453 22.0842 38.7078 20.5398 40.9338 20.5398C43.4301 20.5398 44.0543 22.4037 44.0543 23.5932C44.0676 23.7765 44.0676 23.9602 44.0543 24.1435H38.6768L38.708 24.108H38.7078ZM42.7854 23.2203C42.8255 22.983 42.8056 22.7411 42.727 22.5109C42.6483 22.2807 42.5127 22.0676 42.3294 21.8859C42.146 21.7042 41.9191 21.5582 41.6641 21.4577C41.409 21.3572 41.1316 21.3045 40.8506 21.3032C40.2791 21.3385 39.7437 21.5547 39.3493 21.9093C38.9549 22.264 38.7299 22.7315 38.7184 23.2203H42.7854ZM46.1689 22.6755C46.1689 21.9122 46.1689 21.2555 46.1064 20.6518H47.3547V21.9212H47.4172C47.5482 21.5294 47.8189 21.1822 48.1917 20.9277C48.5644 20.6732 49.0208 20.5241 49.4975 20.501C49.6287 20.4863 49.7616 20.4863 49.8928 20.501V21.6105C49.7338 21.5948 49.5732 21.5948 49.4143 21.6105C48.9421 21.6261 48.4927 21.7878 48.15 22.0655C47.8074 22.3431 47.5949 22.7177 47.5523 23.1193C47.5135 23.301 47.4926 23.4851 47.4898 23.6697V27.1223H46.117V22.6845L46.1689 22.6755V22.6755Z" fill="#4E4E4E"/>
<path d="M45.5582 2.82697C45.6009 3.42323 45.4346 4.01684 45.0806 4.53218C44.7266 5.04752 44.2008 5.46127 43.5702 5.72072C42.9396 5.98017 42.2328 6.07358 41.5398 5.98905C40.8468 5.90452 40.199 5.64587 39.6789 5.24605C39.1588 4.84624 38.7899 4.32336 38.6192 3.74401C38.4485 3.16466 38.4838 2.55508 38.7206 1.99291C38.9573 1.43074 39.3848 0.941435 39.9486 0.587318C40.5124 0.233201 41.1869 0.0303043 41.8863 0.00447405C42.3449 -0.0170907 42.804 0.0389218 43.2371 0.16929C43.6702 0.299658 44.0689 0.50181 44.4101 0.764118C44.7514 1.02643 45.0285 1.34372 45.2255 1.69774C45.4225 2.05176 45.5356 2.43553 45.5582 2.82697Z" fill="#767677"/>
<path d="M24.9908 37.5902C15.6295 37.5902 7.40196 34.7233 3.14786 30.4895C4.79853 34.2982 7.77693 37.5841 11.6822 39.9047C15.5874 42.2253 20.232 43.4693 24.9908 43.4693C29.7497 43.4693 34.3943 42.2253 38.2995 39.9047C42.2047 37.5841 45.1831 34.2982 46.8338 30.4895C42.59 34.7233 34.3938 37.5902 24.9908 37.5902V37.5902ZM24.9908 10.059C34.3522 10.059 42.5797 12.926 46.8338 17.1597C45.1831 13.351 42.2046 10.0652 38.2994 7.74452C34.3942 5.42387 29.7496 4.17978 24.9908 4.17967C20.232 4.17968 15.5874 5.42374 11.6821 7.7444C7.77689 10.065 4.7985 13.3509 3.14786 17.1597C7.40196 12.9172 15.5881 10.059 24.9908 10.059V10.059Z" fill="#F37726"/>
<path d="M12.1039 45.8292C12.1588 46.5802 11.9505 47.3282 11.5054 47.9779C11.0603 48.6276 10.3987 49.1494 9.6048 49.4771C8.81091 49.8047 7.92068 49.9233 7.04755 49.8176C6.17442 49.712 5.35791 49.3869 4.70206 48.8838C4.0462 48.3808 3.58068 47.7225 3.36482 46.9929C3.14896 46.2632 3.19252 45.4953 3.48996 44.7868C3.78739 44.0784 4.32524 43.4616 5.03497 43.0149C5.7447 42.5683 6.59418 42.312 7.47519 42.2788C8.05233 42.2525 8.6299 42.3234 9.17491 42.4876C9.71991 42.6518 10.2217 42.906 10.6515 43.2357C11.0814 43.5654 11.4309 43.9641 11.6801 44.4091C11.9293 44.8541 12.0733 45.3367 12.1039 45.8292V45.8292Z" fill="#9E9E9E"/>
<path d="M4.21171 9.09417C3.70722 9.1061 3.20986 8.99048 2.78219 8.76183C2.35451 8.53318 2.01561 8.20173 1.80811 7.80915C1.60062 7.41658 1.53378 6.98041 1.61602 6.55551C1.69826 6.1306 1.9259 5.73594 2.27031 5.42115C2.61472 5.10635 3.06052 4.88549 3.55164 4.78634C4.04276 4.68719 4.55727 4.71417 5.03047 4.8639C5.50367 5.01362 5.91442 5.2794 6.21106 5.62781C6.50771 5.97622 6.677 6.39171 6.69765 6.82201C6.71737 7.40376 6.46737 7.96867 6.00194 8.39408C5.5365 8.81949 4.8932 9.07106 4.21171 9.09417V9.09417Z" fill="#616262"/>
</svg>
