<svg width="50" height="50" viewBox="0 0 50 50" fill="none" xmlns="http://www.w3.org/2000/svg">
<path d="M14.874 32.9938L16.3936 40.2269C16.735 41.8692 16.8773 43.0156 16.8203 43.6691C17.6514 40.4037 18.232 36.8453 18.5624 32.9938H20.3896C19.6039 39.264 18.5677 43.8205 17.2814 46.6629C16.2793 48.8533 15.1814 49.9484 13.9859 49.9484C13.6672 49.9484 13.2742 49.8072 12.8079 49.5267V48.0152C13.0357 48.0642 13.303 48.0904 13.6104 48.0904C14.1682 48.0904 14.6177 47.8636 14.9597 47.411C15.3691 46.8596 15.5741 46.2398 15.5741 45.5529C15.5741 45.0838 15.4143 44.1212 15.096 42.665L12.9788 32.9938H14.8739H14.874ZM3.24443 28.5481L6.02764 41.006H6.04482L8.84512 28.5481H11.133C11.634 34.7264 11.9299 40.3792 12.0207 45.5032H10.0918C10.0239 40.7133 9.83594 36.2093 9.52852 31.9903H9.51172L6.57441 45.5032H5.10547L2.18594 31.9903H2.16875C1.95215 36.0421 1.81582 40.5461 1.75898 45.5032H0C0.113672 39.4745 0.398145 33.8234 0.853418 28.5481H3.24453H3.24443Z" fill="#00758F"/>
<path d="M34.4236 28.2966C37.4175 28.2966 38.9145 31.1026 38.9145 36.7119C38.9145 39.76 38.4643 42.0625 37.5647 43.6179C37.4026 43.9021 37.2234 44.1477 37.0348 44.3752L39.1534 45.912L39.1514 45.9119L38.3991 47.8176L35.64 45.4559C35.1827 45.6546 34.6795 45.7539 34.1312 45.7539C32.6611 45.7539 31.5631 45.1254 30.8371 43.8699C30.0402 42.4811 29.642 40.2947 29.642 37.3145C29.642 34.2835 30.0914 31.9898 30.9912 30.4324C31.8107 29.0077 32.9551 28.2964 34.4236 28.2964V28.2966ZM25.2557 28.3212C26.3257 28.3212 27.2986 28.7413 28.175 29.5784L27.7299 31.0335C26.98 30.5659 26.2406 30.3311 25.5115 30.3311C24.9199 30.3311 24.4641 30.54 24.1463 30.9603C23.8268 31.3769 23.6291 31.913 23.6291 32.5666C23.6291 33.5709 24.1168 34.4418 25.0173 35.1776C25.3123 35.4142 25.6063 35.6535 25.8992 35.8956L25.9664 35.951L26.0001 35.9788L26.0674 36.0342L26.101 36.062L26.1682 36.1176C26.8498 36.6814 27.4912 37.2195 27.4912 37.2195C28.3916 38.1572 28.8404 39.1569 28.8404 40.8034C28.8404 42.2414 28.4813 43.4218 27.7652 44.3454C27.0487 45.2649 26.0861 45.7259 24.8807 45.7259C23.7532 45.7259 22.6605 45.1953 21.6021 44.1428L22.0973 42.6864C23.0081 43.3562 23.8323 43.6907 24.5725 43.6907C25.2666 43.6907 25.81 43.4633 26.203 43.0143C26.5953 42.562 26.8304 41.9312 26.8304 41.1314C26.8304 40.1246 26.353 39.264 25.4773 38.5421C25.2033 38.32 24.93 38.0956 24.6575 37.8692L24.5904 37.8135C24.4672 37.7113 24.3431 37.6079 24.2215 37.5066L24.1556 37.4516C23.5643 36.9582 23.053 36.5271 23.053 36.5271C22.1776 35.5877 21.7387 34.5798 21.7387 32.9191C21.7387 31.5456 22.066 30.4354 22.7197 29.5908C23.375 28.7444 24.2204 28.3212 25.2557 28.3212V28.3212ZM42.4329 28.5481V43.4175H46.0694V45.5031H40.5886V28.5481H42.4329ZM48.0901 43.4239V43.7764H47.6903V45.5013H47.3847V43.7764H46.9693V43.4239H48.0902H48.0901ZM48.8284 43.4239L49.2123 44.84L49.5649 43.4239H49.9982V45.5013H49.7102V43.9203L49.3088 45.5013H49.1011L48.699 43.9203H48.6836V45.5013H48.411V43.4239H48.8285H48.8284ZM34.2354 30.3817C32.4711 30.3817 31.5885 32.5178 31.5885 36.7871C31.5885 39.2327 31.8224 41.006 32.2893 42.1113C32.7217 43.1342 33.3989 43.6447 34.3211 43.6447C36.0854 43.6447 36.9679 41.492 36.9679 37.1885C36.9679 34.7772 36.734 33.0191 36.2677 31.9132C35.8348 30.8925 35.1578 30.3817 34.2355 30.3817H34.2354Z" fill="#F29111"/>
<path d="M29.6111 1.05051C30.1964 -1.05924 32.2428 0.538472 33.0369 1.27544C33.2315 1.45982 33.4548 1.84936 33.6779 1.99334C34.0261 2.0134 34.3739 2.05337 34.7227 2.07472C35.3768 2.30022 35.9895 2.48446 36.5049 2.91512C38.9002 4.9846 40.4595 7.09349 41.8945 10.5769C42.2012 11.3147 42.3544 12.1131 42.6049 12.9115C42.9525 14.1017 43.3432 15.3509 43.7467 16.4763C43.9273 17.0098 44.0671 17.6031 44.318 18.0537C44.4159 18.2597 44.6941 18.3204 44.8604 18.4435C45.3202 18.7926 45.8772 19.0577 46.3097 19.4674C47.1172 20.2061 47.8979 21.0863 48.6077 21.9875C48.8723 22.3353 49.0525 22.8277 49.3046 23.1956V23.3813C49.0809 23.482 48.8579 23.5852 48.6348 23.6678C48.1474 23.8515 47.7156 23.81 47.2428 23.9938C46.9506 24.1181 46.5878 24.2822 46.2813 24.3239L46.3097 24.3657C46.4899 25.1214 47.4653 25.736 47.9114 26.188C48.4532 26.7617 48.9553 27.4574 49.3594 28.2564C49.4989 28.4603 49.6385 28.6458 49.7773 28.8491C49.8744 29.0551 49.9018 29.3216 50 29.5052V29.5674C49.8912 29.5111 49.813 29.4037 49.7389 29.2913L49.6946 29.2236C49.6504 29.1562 49.6058 29.0901 49.5549 29.0355C49.2475 28.7274 48.9422 28.359 48.6348 28.0726C48.1062 27.5806 47.4933 27.2951 46.9506 26.8012C46.6437 26.5145 46.3513 26.188 46.0588 25.86C45.7937 25.5724 45.5017 25.0203 45.3351 24.6105C45.2369 24.3842 45.2234 24.1181 45.1113 23.9544C45.1313 23.6809 45.3021 23.5996 45.4745 23.5329L45.5142 23.5176C45.5736 23.4949 45.6318 23.4723 45.6826 23.4423C46.4066 22.9913 47.2698 22.8277 48.3845 22.8687C48.3425 22.4581 47.646 21.9465 47.4236 21.7007C46.9773 21.2287 46.5048 20.7363 46.0313 20.3068C45.7805 20.0819 45.3481 19.9177 45.0702 19.7339C44.6941 19.5084 43.8583 19.283 43.6499 18.8535C43.2959 18.1764 43.0416 17.3688 42.7947 16.5531L42.7275 16.3305C42.7051 16.2563 42.6827 16.1821 42.6602 16.108C42.3684 15.1256 42.0059 14.1014 41.7134 13.0955C41.5604 12.6048 41.4902 12.1741 41.3228 11.7035C40.3064 8.81555 38.8022 6.39764 36.9785 4.69721C36.3792 4.14392 35.7109 3.63188 34.9732 3.28389C34.5552 3.09864 34.0534 3.20108 33.608 3.05896H33.3148C33.0646 2.95552 32.8558 2.56641 32.6605 2.36125C32.2294 1.93174 31.7976 1.64334 31.2819 1.3369C31.1013 1.21397 30.5854 0.927727 30.4053 1.15309C30.2937 1.1942 30.2372 1.25595 30.2098 1.42013C30.0988 1.66512 30.1964 2.03417 30.2654 2.26011C30.4746 2.91483 30.7668 3.30395 31.032 3.85724C31.268 4.34793 31.561 4.90122 31.7283 5.43475C32.0893 6.5816 32.2573 7.85223 32.5918 8.99893C32.7158 9.43016 32.912 9.92085 33.0926 10.3098C33.2456 10.6186 33.5238 10.8418 33.608 11.2326C33.7758 11.6423 33.3568 12.9943 33.2599 13.4237C32.8971 15.1038 32.9674 17.4392 33.3852 18.8955L33.4074 18.9723L33.4297 19.0501C33.5822 19.5835 33.7455 20.1578 34.1511 20.307C34.179 20.2663 34.1511 20.2876 34.2064 20.2663C34.3046 19.139 34.3322 18.0535 34.5971 17.1716C34.7501 16.6201 35.0557 16.2303 35.2651 15.7802C35.4048 15.9028 35.4048 16.2726 35.488 16.5173C35.6692 17.1519 35.8639 17.8478 36.0873 18.4843C36.5459 19.7952 37.0619 21.0661 37.6466 22.2128C37.8424 22.6224 38.1202 23.0733 38.3708 23.4422C38.4824 23.585 38.6074 23.6676 38.6913 23.8514H38.7187V23.9133C38.3009 23.6873 38.036 23.0532 37.7028 22.683C37.0755 21.9872 36.3242 20.9422 35.8918 19.9395C35.7109 19.3638 35.5154 18.8121 35.3205 18.2393V18.1979C35.2372 18.3615 35.2651 18.524 35.2234 18.7716C35.0426 19.7952 35.1818 20.963 34.5552 21.3312C33.8448 21.7624 33.3149 20.6353 33.0926 20.1231C32.382 18.4231 32.1874 15.5552 32.6885 13.2402C32.7998 12.7277 32.8149 12.1131 33.0093 11.7039C32.9673 11.334 32.7729 11.2329 32.6605 11.0062C32.4656 10.6188 32.2987 10.1676 32.1461 9.73733C31.8529 8.89693 31.6443 7.89277 31.4218 6.99148C31.3239 6.62343 31.2959 6.25395 31.1983 5.90552C31.0319 5.37372 30.7252 4.84019 30.4886 4.3697C30.1682 3.69349 29.235 2.38289 29.6111 1.05051V1.05051ZM34.1787 5.06412C34.2159 5.11884 34.2608 5.1667 34.3073 5.21383L34.3634 5.27028C34.4381 5.34621 34.5104 5.42615 34.5548 5.53503C34.6251 5.67916 34.6382 5.82142 34.7224 5.96584C34.7224 6.45824 34.6251 6.78561 34.4287 6.98962C34.4287 6.98962 34.4153 7.01111 34.4016 7.03117C34.2902 6.70294 34.1927 6.37644 34.0806 6.0485C33.9425 5.76226 33.7473 5.53518 33.6348 5.2081H33.6077V5.16698C33.7758 5.10609 33.9425 5.06412 34.1787 5.06412Z" fill="#00758F"/>
</svg>
