<svg width="50" height="50" viewBox="0 0 50 50" fill="none" xmlns="http://www.w3.org/2000/svg">
<path fill-rule="evenodd" clip-rule="evenodd" d="M28.8875 3.125C28.5872 3.12841 28.2894 3.1812 28.0062 3.28125C30.5234 4.93437 27.5687 7.33438 28.9437 9.375C28.8476 8.69192 28.9559 7.99566 29.2551 7.37412C29.5544 6.75259 30.0311 6.23364 30.625 5.88281C31.0703 5.5125 31.3547 5.37969 31.2594 4.76719C31.1094 3.76406 29.7719 3.125 28.8875 3.125ZM32.4812 3.77188C32.1344 5.52656 31.7 5.59063 30.4141 6.72031C29.912 7.11534 29.5576 7.66791 29.4079 8.28897C29.2582 8.91003 29.3221 9.56339 29.5891 10.1438C24.2766 8.08125 17.4672 6.83438 12.475 10.4031C10.6797 11.6859 9.58281 13.5281 7.36875 14.2797C5.9375 14.7687 4.53125 14.625 3.6375 16.0437C3.30948 16.4534 3.13813 16.9665 3.15417 17.4911C3.1702 18.0157 3.37257 18.5174 3.725 18.9063C3.99062 19.1797 4.50625 19.3547 4.71875 19.6328C4.84218 19.7891 4.83906 19.9453 4.95625 20.1531C5.16285 20.6377 5.46222 21.0772 5.8375 21.4469C6.06562 21.6359 6.85625 21.8203 6.99062 22.0219C7.15781 22.2734 6.72031 23.2719 7.08749 23.4281C7.33593 23.5422 8.05937 22.2656 8.12968 22.1531C7.98593 23.1578 7.79687 24.9406 8.92656 23.4563C9.46249 22.7516 9.49531 22.5188 10.3969 22.3625C12.1762 22.0577 13.9994 22.1251 15.7514 22.5604C17.5034 22.9956 19.1461 23.7893 20.576 24.8913C22.0059 25.9933 23.1918 27.3797 24.0589 28.9631C24.926 30.5464 25.4556 32.2924 25.6141 34.0906C25.4453 33.3094 24.425 32.0594 23.475 32.3563C23.0703 32.4813 22.9203 33.1797 22.6547 33.5844C22.3193 34.0979 21.9054 34.5555 21.4281 34.9406C21.5096 34.1831 21.4717 33.4176 21.3156 32.6719C21.0312 33.8406 20.4609 35.7797 19.025 35.4656C18.5466 35.3926 18.0984 35.1866 17.7316 34.8711C17.3647 34.5556 17.0938 34.1433 16.95 33.6812C16.7641 32.4937 18.0187 31.1016 16.0016 31.0031C11.9547 30.8047 12.8906 36.7563 15.2797 38.3078C14.7306 38.3686 14.195 38.5179 13.6937 38.75C15.2101 39.6312 16.9188 40.1287 18.6712 40.1994C20.4236 40.27 22.1668 39.9116 23.7492 39.1554C25.3316 38.3991 26.7054 37.2679 27.7512 35.86C28.797 34.452 29.4831 32.81 29.75 31.0766C30.3065 33.6123 29.949 36.2632 28.7406 38.5609C28.2349 39.5215 27.5869 40.4001 26.8187 41.1672C26.35 41.6359 25.4219 42.1516 25.1172 42.6375C27.0135 42.3868 28.8666 41.8779 30.625 41.125C28.8049 43.6052 26.3858 45.5834 23.5937 46.875C26.5918 46.6628 29.4899 45.7077 32.0267 44.0958C34.5635 42.484 36.6593 40.2661 38.125 37.6422C37.6579 40.2665 36.6205 42.7564 35.0859 44.9359C37.1499 43.5542 38.9059 41.7606 40.2436 39.6679C41.5813 37.5751 42.4719 35.2284 42.8594 32.775C43.2434 34.571 43.3535 36.4148 43.1859 38.2437C44.8819 35.8881 46.0278 33.182 46.5392 30.3248C47.0506 27.4676 46.9144 24.532 46.1406 21.7344C45.5485 19.5598 44.6605 17.4768 43.5016 15.5437C43.053 14.7905 42.5621 14.0633 42.0312 13.3656C41.8234 13.0953 40.7125 12.1062 40.7125 11.8031C40.7031 11.8333 40.6953 11.8333 40.6891 11.8031C40.6891 16.9062 35.2203 20.1016 30.6406 18.7766C32.4135 18.6374 34.0858 17.8976 35.3812 16.6794C36.6767 15.4612 37.5178 13.8375 37.7656 12.0766C37.9746 10.2959 37.5633 8.49757 36.601 6.98479C35.6387 5.47201 34.1842 4.33728 32.4828 3.77188H32.4812Z" fill="url(#paint0_linear_101_32)"/>
<path d="M22.875 42.3656L25.4844 40.8031C25.6197 41.2543 25.887 41.6546 26.2518 41.9526C26.6165 42.2505 27.0622 42.4325 27.5313 42.475C28.5781 42.475 29.25 42.0687 29.25 40.4594V29.5219H32.375V40.4594C32.4419 41.0259 32.3966 41.6001 32.2416 42.1491C32.0866 42.6981 31.825 43.2112 31.4717 43.6591C31.1184 44.107 30.6803 44.481 30.1825 44.7596C29.6847 45.0381 29.1369 45.216 28.5703 45.2828C28.2458 45.3188 27.9183 45.3188 27.5937 45.2828C26.5928 45.3363 25.5991 45.0858 24.743 44.5644C23.887 44.043 23.2086 43.2749 22.7969 42.3609M34.1875 42.0172L36.7969 40.4547C37.0853 41.0369 37.5308 41.5268 38.083 41.8692C38.6352 42.2116 39.2721 42.3927 39.9219 42.3922C40.3963 42.5103 40.8983 42.4354 41.3175 42.1837C41.7368 41.9321 42.039 41.5243 42.1578 41.05C42.1688 41.0031 42.1797 40.9562 42.1875 40.9078C42.1875 39.8141 41.3125 39.3453 39.8594 38.7828L39.0625 38.4375C36.75 37.4531 35.2188 36.2187 35.2188 33.6094C35.2278 32.4744 35.6872 31.3896 36.4959 30.5932C37.3045 29.7968 38.3963 29.3542 39.5312 29.3625C39.6578 29.3625 39.7828 29.3625 39.9094 29.3812C40.8359 29.3096 41.7629 29.5149 42.5724 29.9711C43.382 30.4274 44.0377 31.114 44.4562 31.9437L41.9719 33.5062C41.8094 33.094 41.5247 32.7414 41.1561 32.4956C40.7874 32.2498 40.3524 32.1227 39.9094 32.1312C39.7282 32.1085 39.5442 32.1217 39.3682 32.1701C39.1921 32.2185 39.0272 32.3012 38.8831 32.4134C38.739 32.5256 38.6184 32.6651 38.5283 32.8239C38.4382 32.9828 38.3802 33.1578 38.3578 33.3391C38.3502 33.3945 38.3466 33.4503 38.3469 33.5062C38.3469 34.4594 38.9406 34.85 40.3156 35.4437L41.1125 35.7875C43.75 36.9594 45.3125 38.1469 45.3125 40.8344C45.3125 43.5219 43.0469 45.2875 40.0156 45.2875C38.8326 45.364 37.6527 45.0964 36.6185 44.5169C35.5842 43.9374 34.7399 43.0708 34.1875 42.0219" fill="#F7DF1E"/>
<defs>
<linearGradient id="paint0_linear_101_32" x1="24.9953" y1="46.875" x2="24.9953" y2="3.125" gradientUnits="userSpaceOnUse">
<stop stop-color="#FFB199"/>
<stop offset="1" stop-color="#FF0844"/>
</linearGradient>
</defs>
</svg>
