<svg width="50" height="50" viewBox="0 0 50 50" fill="none" xmlns="http://www.w3.org/2000/svg">
<path d="M25 28.8656C27.1574 28.8656 28.9062 27.1167 28.9062 24.9594C28.9062 22.802 27.1574 21.0531 25 21.0531C22.8426 21.0531 21.0938 22.802 21.0938 24.9594C21.0938 27.1167 22.8426 28.8656 25 28.8656Z" fill="#00D8FF"/>
<path d="M25 33.9156C20.3049 34.0292 15.6216 33.3963 11.125 32.0406C9.04785 31.3822 7.11052 30.3449 5.41094 28.9812C4.76239 28.5154 4.2223 27.9147 3.82772 27.2205C3.43314 26.5263 3.19342 25.7549 3.125 24.9594C3.125 22.3766 5.9625 19.8453 10.7156 18.1891C15.3324 16.7215 20.1561 16.0102 25 16.0828C29.7792 16.016 34.5383 16.7144 39.0969 18.1516C41.0973 18.7893 42.969 19.7764 44.625 21.0672C45.2625 21.5113 45.7945 22.0902 46.1833 22.7628C46.5721 23.4354 46.8083 24.1853 46.875 24.9594C46.875 27.6437 43.7031 30.3641 38.5938 32.0547C34.1843 33.3662 29.5997 33.9938 25 33.9156V33.9156ZM25 17.9516C20.3658 17.8896 15.7513 18.5658 11.3297 19.9547C6.95469 21.4812 4.99375 23.5687 4.99375 24.9547C4.99375 26.4047 7.10156 28.6844 11.7297 30.2672C16.0314 31.5576 20.5103 32.1583 25 32.0469C29.4006 32.1256 33.7874 31.5301 38.0078 30.2812C42.8125 28.6891 45 26.4062 45 24.9594C44.9212 24.4628 44.7402 23.9881 44.4686 23.565C44.197 23.142 43.8406 22.7799 43.4219 22.5016C41.9402 21.3565 40.2683 20.4816 38.4828 19.9172C34.1219 18.548 29.5703 17.8845 25 17.9516V17.9516Z" fill="#00D8FF"/>
<path d="M16.125 44.4422C15.3961 44.4589 14.6758 44.2821 14.0375 43.9297C11.8 42.6391 11.025 38.9172 11.9641 33.9719C12.9994 29.2392 14.7934 24.7052 17.2766 20.5453C19.6058 16.372 22.5878 12.5983 26.1094 9.36719C27.6612 7.95267 29.4514 6.82429 31.3969 6.03438C32.1006 5.7046 32.8682 5.53365 33.6453 5.53365C34.4224 5.53365 35.1901 5.7046 35.8938 6.03438C38.2203 7.375 38.9906 11.4813 37.9047 16.7516C36.8373 21.2274 35.0899 25.5132 32.7234 29.4594C30.4761 33.5834 27.5881 37.3243 24.1672 40.5422C22.559 42.0122 20.6927 43.1718 18.6625 43.9625C17.8497 44.2642 16.9918 44.4263 16.125 44.4422V44.4422ZM18.8953 21.4734C16.5267 25.4568 14.8073 29.7917 13.8016 34.3156C12.9375 38.8703 13.7672 41.6094 14.9734 42.3063C16.2234 43.0297 19.2578 42.3438 22.9422 39.125C26.2079 36.0421 28.9644 32.4613 31.1094 28.5156C33.3765 24.743 35.0526 20.6455 36.0797 16.3656C37.1016 11.4047 36.2188 8.36719 34.9656 7.64532C34.496 7.46536 33.9941 7.3848 33.4917 7.40874C32.9893 7.43267 32.4973 7.56058 32.0469 7.78438C30.3151 8.49898 28.723 9.51349 27.3438 10.7813C23.9792 13.8762 21.1308 17.489 18.9063 21.4828L18.8953 21.4734Z" fill="#00D8FF"/>
<path d="M33.8703 44.4625C31.7531 44.4625 29.0641 43.1812 26.2641 40.7734C22.6808 37.5129 19.6484 33.6944 17.2844 29.4656C14.8324 25.3631 13.0526 20.8946 12.0125 16.2297C11.5614 14.1773 11.4778 12.0612 11.7656 9.97968C11.8322 9.20751 12.0673 8.45933 12.4544 7.78791C12.8416 7.11649 13.3713 6.53817 14.0063 6.09375C16.3297 4.74844 20.2719 6.13125 24.2953 9.70312C27.64 12.8628 30.4803 16.5167 32.7172 20.5375C35.1677 24.5443 36.9661 28.9149 38.0453 33.4859C38.5158 35.6136 38.5884 37.81 38.2594 39.9641C38.1811 40.7584 37.932 41.5265 37.529 42.2156C37.1261 42.9047 36.5789 43.4985 35.925 43.9562C35.2971 44.3042 34.588 44.479 33.8703 44.4625V44.4625ZM18.9016 28.525C21.1694 32.5663 24.0661 36.2209 27.4828 39.3516C30.9969 42.375 33.7844 43.025 34.9828 42.3203C36.2328 41.5937 37.1547 38.6281 36.2047 33.8297C35.1639 29.4655 33.4389 25.2936 31.0938 21.4687C28.9591 17.6205 26.248 14.1217 23.0547 11.0937C19.2672 7.73125 16.1953 6.97969 14.9438 7.70469C14.5537 8.02169 14.2335 8.41613 14.0036 8.8631C13.7737 9.31007 13.6389 9.79987 13.6078 10.3016C13.3594 12.1579 13.4403 14.0436 13.8469 15.8719C14.8473 20.333 16.5543 24.6056 18.9031 28.5281L18.9016 28.525Z" fill="#00D8FF"/>
</svg>
